<?xml version="1.0" standalone="no"?>
<!DOCTYPE svg PUBLIC "-//W3C//DTD SVG 20010904//EN"
 "http://www.w3.org/TR/2001/REC-SVG-20010904/DTD/svg10.dtd">
<svg version="1.0" xmlns="http://www.w3.org/2000/svg"
 width="500.000000pt" height="500.000000pt" viewBox="0 0 500.000000 500.000000"
 preserveAspectRatio="xMidYMid meet">
<metadata>
Created by potrace 1.14, written by Peter Selinger 2001-2017
</metadata>
<g transform="translate(0.000000,500.000000) scale(0.100000,-0.100000)"
fill="#000000" stroke="none">
<path d="M1693 4960 c-34 -22 -96 -71 -139 -108 -47 -40 -122 -90 -184 -123
-139 -74 -137 -73 -263 -157 -179 -119 -336 -258 -503 -443 -46 -51 -146 -186
-200 -269 -154 -237 -285 -543 -339 -795 -19 -89 -37 -192 -49 -290 -17 -139
-21 -620 -6 -695 6 -30 14 -66 16 -80 9 -46 33 -121 53 -163 10 -23 42 -103
69 -177 71 -191 135 -343 148 -355 17 -15 55 -78 111 -185 52 -100 164 -281
195 -316 10 -11 18 -25 18 -31 0 -6 10 -18 23 -26 12 -8 41 -33 64 -56 23 -23
51 -41 61 -41 33 0 110 -57 131 -98 21 -42 81 -88 123 -96 38 -6 68 -24 96
-57 15 -18 33 -29 49 -29 33 0 169 -77 188 -107 21 -31 85 -62 141 -68 46 -5
134 -47 134 -65 0 -7 193 -78 235 -86 6 -1 32 -10 58 -19 27 -9 61 -16 75 -15
15 1 54 1 87 0 339 -10 816 -9 853 1 32 9 46 9 55 0 59 -59 555 98 834 266 39
24 74 43 77 43 11 0 215 146 296 213 128 104 308 293 411 430 142 189 220 327
343 607 l46 105 0 800 c0 786 0 801 -21 855 -90 238 -143 346 -291 585 -149
241 -290 411 -415 498 -462 325 -685 437 -1083 549 l-115 32 -661 3 -660 4
-61 -41z m3005 -1195 c63 -100 150 -287 162 -345 5 -30 12 -64 14 -75 2 -11
15 -40 28 -65 18 -34 23 -57 20 -88 -5 -47 -10 -49 -18 -7 -3 16 -10 38 -16
49 -6 12 -11 23 -10 26 9 35 -167 427 -238 530 -9 14 -23 36 -30 49 l-12 23
31 -18 c18 -10 49 -46 69 -79z m47 -2388 c-8 -19 -20 -39 -26 -43 -13 -8 -12
-6 16 53 24 49 32 42 10 -10z"/>
<path d="M782 4591 c-54 -27 -102 -65 -102 -79 0 -11 115 -4 156 9 44 14 64
38 53 67 -4 12 -12 22 -16 23 -4 0 -15 2 -23 4 -9 1 -39 -9 -68 -24z"/>
<path d="M4853 1278 c-12 -6 -28 -26 -34 -45 -10 -30 -9 -39 8 -61 11 -15 34
-29 50 -33 32 -6 93 13 93 29 0 18 -32 102 -41 108 -19 11 -55 12 -76 2z"/>
<path d="M164 1008 c-8 -27 22 -54 43 -37 18 16 16 46 -3 53 -26 10 -32 7 -40
-16z"/>
<path d="M301 870 c-19 -11 -9 -45 14 -45 13 0 21 8 23 21 3 23 -17 37 -37 24z"/>
<path d="M565 780 c-10 -16 14 -50 30 -44 23 9 19 54 -4 54 -11 0 -23 -4 -26
-10z"/>
<path d="M100 675 c0 -8 5 -15 10 -15 6 0 10 7 10 15 0 8 -4 15 -10 15 -5 0
-10 -7 -10 -15z"/>
<path d="M797 583 c-4 -3 -7 -17 -7 -30 0 -18 6 -23 24 -23 13 0 27 7 30 16
11 28 -27 57 -47 37z"/>
<path d="M921 422 c-7 -13 -6 -23 1 -30 28 -28 63 3 38 33 -16 20 -27 19 -39
-3z"/>
<path d="M4085 261 c-46 -20 -105 -68 -105 -83 0 -7 26 -8 76 -4 103 9 134 26
134 72 0 38 -43 44 -105 15z"/>
<path d="M722 239 c2 -6 8 -10 13 -10 5 0 11 4 13 10 2 6 -4 11 -13 11 -9 0
-15 -5 -13 -11z"/>
<path d="M1335 10 c-4 -6 8 -10 30 -10 22 0 34 4 30 10 -8 13 -52 13 -60 0z"/>
</g>
</svg>
